<svg width="22" height="22" viewBox="0 0 22 22" fill="none" xmlns="http://www.w3.org/2000/svg">
<path d="M11 0.521484C5.20156 0.521484 0.5 5.22305 0.5 11.0215C0.5 16.8199 5.20156 21.5215 11 21.5215C16.7984 21.5215 21.5 16.8199 21.5 11.0215C21.5 5.22305 16.7984 0.521484 11 0.521484ZM11 19.7402C6.18594 19.7402 2.28125 15.8355 2.28125 11.0215C2.28125 6.20742 6.18594 2.30273 11 2.30273C15.8141 2.30273 19.7188 6.20742 19.7188 11.0215C19.7188 15.8355 15.8141 19.7402 11 19.7402ZM11.1312 7.25508C12.3734 7.25508 13.2172 8.04727 13.3109 9.20977C13.318 9.3082 13.4 9.3832 13.4984 9.3832H14.8273C14.8883 9.3832 14.9375 9.33398 14.9375 9.27305C14.9375 7.24102 13.3344 5.81836 11.1242 5.81836C8.54844 5.81836 7.0625 7.55742 7.0625 10.4309V11.6566C7.0625 14.509 8.54844 16.2246 11.1242 16.2246C13.3273 16.2246 14.9375 14.8465 14.9375 12.9105C14.9375 12.8496 14.8883 12.8004 14.8273 12.8004H13.4961C13.3977 12.8004 13.318 12.8754 13.3086 12.9715C13.2102 14.052 12.3687 14.7949 11.1289 14.7949C9.59844 14.7949 8.73594 13.6723 8.73594 11.6637V10.4309C8.73828 8.3918 9.60312 7.25508 11.1312 7.25508Z" fill="#F8F8F8"/>
</svg>
